<?xml version="1.0" standalone="no"?>
<!DOCTYPE svg PUBLIC "-//W3C//DTD SVG 20010904//EN"
 "http://www.w3.org/TR/2001/REC-SVG-20010904/DTD/svg10.dtd">
<svg version="1.0" xmlns="http://www.w3.org/2000/svg"
 width="455.000000pt" height="75.000000pt" viewBox="0 0 455.000000 75.000000"
 preserveAspectRatio="xMidYMid meet">
<metadata>
Created by potrace 1.16, written by Peter Selinger 2001-2019
</metadata>
<g transform="translate(0.000000,75.000000) scale(0.100000,-0.100000)"
fill="#000000" stroke="none">
<path d="M1815 501 c-103 -46 -71 -177 47 -196 59 -10 78 -22 78 -49 0 -37
-33 -60 -76 -53 -20 3 -45 13 -54 22 -17 15 -20 15 -44 -1 -25 -16 -26 -18
-10 -35 44 -49 122 -61 190 -30 48 22 70 63 60 116 -9 45 -36 70 -94 85 -79
20 -92 27 -92 54 0 45 59 60 111 29 27 -16 29 -16 49 2 24 22 13 41 -37 62
-44 18 -80 16 -128 -6z"/>
<path d="M3955 506 c-69 -31 -101 -101 -92 -204 3 -42 12 -74 24 -91 29 -39
82 -71 117 -71 43 1 112 34 126 61 11 19 9 24 -11 40 -22 17 -24 16 -50 -12
-29 -31 -53 -36 -92 -18 -34 16 -47 49 -47 125 0 59 3 68 29 95 36 36 73 37
107 4 21 -21 28 -23 49 -13 29 13 30 16 9 47 -32 46 -110 63 -169 37z"/>
<path d="M930 433 c9 -43 28 -124 40 -180 l23 -103 38 0 c43 0 41 -6 81 173
12 53 25 97 28 97 4 0 16 -44 28 -98 40 -177 38 -172 81 -172 l37 0 38 163
c20 89 40 170 42 180 4 14 -1 17 -28 17 l-34 0 -23 -122 c-13 -68 -27 -131
-30 -141 -5 -12 -17 28 -35 105 -15 68 -30 131 -32 141 -4 12 -16 17 -43 17
l-38 0 -32 -140 c-18 -77 -34 -140 -36 -140 -1 0 -15 63 -30 140 l-28 140 -32
0 -33 0 18 -77z"/>
<path d="M1447 338 c-31 -96 -57 -177 -57 -181 0 -4 15 -7 34 -7 31 0 34 3 46
45 l13 46 66 -3 65 -3 12 -40 c10 -36 14 -40 46 -43 l36 -3 -57 178 -57 178
-45 3 -44 3 -58 -173z"/>
<path d="M2040 480 c0 -29 1 -30 50 -30 l50 0 0 -150 0 -150 35 0 35 0 0 150
0 150 50 0 c49 0 50 1 50 30 l0 30 -135 0 -135 0 0 -30z"/>
<path d="M2370 330 l0 -180 115 0 115 0 0 30 0 30 -85 0 -85 0 0 45 0 45 75 0
75 0 0 30 0 29 -72 3 -73 3 -3 43 -3 42 85 0 86 0 0 30 0 30 -115 0 -115 0 0
-180z"/>
<path d="M2775 488 c33 -145 75 -330 75 -334 0 -2 18 -4 40 -4 33 0 41 4 45
22 70 301 58 290 104 93 l26 -110 40 0 40 0 27 115 c15 63 34 143 42 178 l14
62 -33 0 -32 0 -23 -117 c-13 -65 -26 -127 -30 -138 -9 -23 -13 -10 -50 158
l-22 97 -38 0 -38 0 -33 -136 c-18 -79 -35 -131 -39 -123 -4 8 -18 69 -31 137
l-23 122 -33 0 c-29 0 -33 -3 -28 -22z"/>
<path d="M3305 337 c-30 -96 -55 -177 -55 -181 0 -4 14 -6 32 -4 27 3 33 9 46
46 l14 42 63 0 63 0 14 -42 c13 -37 19 -43 46 -46 18 -2 32 1 32 6 0 5 -25 86
-55 180 l-56 172 -44 0 -44 0 -56 -173z"/>
<path d="M3560 480 c0 -29 1 -30 50 -30 l50 0 0 -150 0 -150 35 0 35 0 0 150
0 150 50 0 c49 0 50 1 50 30 l0 30 -135 0 -135 0 0 -30z"/>
<path d="M4200 330 l0 -180 35 0 35 0 0 75 0 75 75 0 75 0 0 -75 0 -75 35 0
35 0 0 180 0 180 -35 0 -35 0 0 -75 0 -75 -75 0 -75 0 0 75 0 75 -35 0 -35 0
0 -180z"/>
<path d="M590 464 c0 -16 -7 -40 -16 -52 -14 -20 -14 -24 6 -53 12 -16 20 -32
18 -34 -2 -2 -26 2 -53 10 -26 8 -61 15 -77 15 -29 0 -35 9 -17 27 8 8 6 17
-8 32 -10 12 -20 31 -23 44 -9 33 -40 35 -40 3 0 -14 -10 -36 -22 -48 -19 -19
-20 -22 -5 -33 21 -15 12 -25 -23 -25 -15 0 -49 -7 -75 -15 -27 -8 -51 -12
-53 -10 -2 2 5 17 17 33 l21 30 -23 41 -24 41 -76 -114 c-78 -117 -87 -148
-46 -161 10 -3 50 5 89 19 39 14 75 26 81 26 5 0 9 -46 9 -105 l0 -105 150 0
150 0 0 105 c0 58 4 105 8 105 5 0 42 -11 82 -25 40 -14 77 -25 81 -25 12 0
39 30 39 43 0 7 -38 68 -85 136 -73 107 -85 120 -85 95z"/>
</g>
</svg>
